<svg width="70" height="70" viewBox="0 0 70 70" fill="none" xmlns="http://www.w3.org/2000/svg">
<path d="M5.1626 7H27.3876V27.7375H5.1626V7Z" stroke="#1999E3" stroke-width="1.4525" stroke-linecap="round" stroke-linejoin="round"/>
<path d="M23.8876 26.8623C21.0001 22.6623 15.3126 21.6123 11.1126 24.4123C10.1501 25.0248 9.3626 25.8998 8.6626 26.8623" stroke="#1999E3" stroke-width="1.4525" stroke-linecap="round" stroke-linejoin="round"/>
<path d="M16.2751 20.3876C19.0296 20.3876 21.2626 18.1546 21.2626 15.4001C21.2626 12.6456 19.0296 10.4126 16.2751 10.4126C13.5206 10.4126 11.2876 12.6456 11.2876 15.4001C11.2876 18.1546 13.5206 20.3876 16.2751 20.3876Z" stroke="#1999E3" stroke-width="1.4525" stroke-linecap="round" stroke-linejoin="round"/>
<path d="M32.9875 7H55.2125V27.7375H32.9875V7Z" stroke="#1999E3" stroke-width="1.4525" stroke-linecap="round" stroke-linejoin="round"/>
<path d="M51.7125 26.8623C48.825 22.6623 43.1375 21.6123 38.9375 24.4123C37.975 25.0248 37.1875 25.8998 36.4875 26.8623" stroke="#1999E3" stroke-width="1.4525" stroke-linecap="round" stroke-linejoin="round"/>
<path d="M44.1 20.3876C46.8546 20.3876 49.0875 18.1546 49.0875 15.4001C49.0875 12.6456 46.8546 10.4126 44.1 10.4126C41.3455 10.4126 39.1125 12.6456 39.1125 15.4001C39.1125 18.1546 41.3455 20.3876 44.1 20.3876Z" stroke="#1999E3" stroke-width="1.4525" stroke-linecap="round" stroke-linejoin="round"/>
<path d="M5.1626 33.0752H27.3876V53.8127H5.1626V33.0752Z" stroke="#1999E3" stroke-width="1.4525" stroke-linecap="round" stroke-linejoin="round"/>
<path d="M23.8876 52.9375C21.0001 48.7375 15.3126 47.6875 11.1126 50.4875C10.1501 51.1 9.3626 51.975 8.6626 52.9375" stroke="#1999E3" stroke-width="1.4525" stroke-linecap="round" stroke-linejoin="round"/>
<path d="M16.2751 46.3749C19.0296 46.3749 21.2626 44.1419 21.2626 41.3874C21.2626 38.6329 19.0296 36.3999 16.2751 36.3999C13.5206 36.3999 11.2876 38.6329 11.2876 41.3874C11.2876 44.1419 13.5206 46.3749 16.2751 46.3749Z" stroke="#1999E3" stroke-width="1.4525" stroke-linecap="round" stroke-linejoin="round"/>
<path d="M49.0875 50.4002C46.1125 48.4752 42.0875 48.3877 38.9375 50.4877C37.975 51.1002 37.1875 51.9752 36.4875 52.9377" stroke="#1999E3" stroke-width="1.4525" stroke-linecap="round" stroke-linejoin="round"/>
<path d="M44.1 46.3749C46.8546 46.3749 49.0875 44.1419 49.0875 41.3874C49.0875 38.6329 46.8546 36.3999 44.1 36.3999C41.3455 36.3999 39.1125 38.6329 39.1125 41.3874C39.1125 44.1419 41.3455 46.3749 44.1 46.3749Z" stroke="#1999E3" stroke-width="1.4525" stroke-linecap="round" stroke-linejoin="round"/>
<path d="M50.8375 55.7373L46.55 64.5748L50.925 63.0873L52.4125 67.3748L56.4375 59.1498" stroke="#1999E3" stroke-width="1.4525" stroke-linecap="round" stroke-linejoin="round"/>
<path d="M56.0875 58.8002L59.7626 67.5502L61.5126 63.2627L65.8 65.0127L62.125 56.4377M55.2125 41.0377V33.0752H32.9875V53.8127H49.7875" stroke="#1999E3" stroke-width="1.4525" stroke-linecap="round" stroke-linejoin="round"/>
<path d="M56.875 42.6123L58.8876 41.1248L59.85 43.3998L62.3 42.8748V45.3248L64.75 45.8498L63.6125 48.1248L65.7125 49.5248L63.7875 51.1873L65.1 53.2873L62.7375 54.0748L63 56.5248L60.55 56.1748L59.7626 58.6248L57.6625 57.3123L56 59.2373L54.6 57.1373L52.325 58.1873L51.8875 55.7373L49.35 55.8248L49.9625 53.3748L47.6 52.3248L49.175 50.3998L47.425 48.5623L49.6125 47.3373L48.825 44.9748L51.275 44.7998L51.5375 42.2623L53.9 43.1373L55.125 40.8623L56.875 42.6123Z" stroke="#1999E3" stroke-width="1.4525" stroke-linecap="round" stroke-linejoin="round"/>
</svg>
