<svg width="70" height="70" viewBox="0 0 70 70" fill="none" xmlns="http://www.w3.org/2000/svg">
<g clip-path="url(#clip0_112_491)">
<path d="M24.5874 14.875C18.8124 17.0625 14.9624 22.575 14.9624 28.7875V33.95C14.9624 42.175 21.6124 48.825 29.8374 48.825H30.8874C39.1124 48.825 45.7624 42.175 45.7624 33.95V32.2875" stroke="#1999E3" stroke-width="1.4525" stroke-linecap="round" stroke-linejoin="round"/>
<path d="M50.2251 29.8377V25.0252C50.2251 14.0002 41.3001 5.0752 30.3626 5.0752C19.3376 5.0752 10.4126 14.0002 10.4126 25.0252V29.8377" stroke="#1999E3" stroke-width="1.4525" stroke-linecap="round" stroke-linejoin="round"/>
<path d="M47.425 31.5004C35.4375 32.3754 25.025 23.9754 24.325 12.7754M49.7 44.7129C50.05 43.5754 50.225 42.3504 50.225 41.1254V36.4004M36.4 54.8629C38.5 54.8629 40.425 54.4254 42.0875 53.6379M65.625 46.2879L64.575 50.9254L59.4125 49.8754M46.55 53.7254C46.8125 53.2879 47.1625 52.8504 47.6 52.5004C48.3875 51.9754 49.2625 51.8879 50.1375 52.1504C50.4 52.2379 50.6625 52.4129 50.8375 52.5879C51.0125 52.7629 51.1875 52.9379 51.275 53.2004C51.3625 53.4629 51.45 53.7254 51.45 53.9879V54.5129C51.3625 54.6879 51.3625 54.8629 51.275 55.0379C51.1 55.3004 51.0125 55.4754 50.8375 55.6504C50.575 56.0004 50.3125 56.2629 50.05 56.5254L46.8125 59.6754H51.625M60.2 57.9254H58.8875V59.9379M58.625 57.9254H54.075L53.9875 57.7504L58.625 52.1504H58.8V57.7504M30.3625 52.2379H32.9875C34.5625 52.2379 35.7875 53.5504 35.7875 55.0379C35.7875 56.6129 34.475 57.8379 32.9875 57.8379H30.3625C28.7875 57.8379 27.5625 56.5254 27.5625 55.0379C27.5625 53.5504 28.7875 52.2379 30.3625 52.2379ZM8.8375 26.8629H10.4125V38.1504H8.8375C7.35 38.1504 6.125 36.9254 6.125 35.4379V29.5754C6.125 28.0879 7.35 26.8629 8.8375 26.8629ZM51.8 38.6754H50.225V27.3879H51.8C53.2875 27.3879 54.5125 28.6129 54.5125 30.1004V35.9629C54.5125 37.4504 53.2875 38.6754 51.8 38.6754Z" stroke="#1999E3" stroke-width="1.4525" stroke-linecap="round" stroke-linejoin="round"/>
<path d="M65.45 55.7377C65.45 62.2127 60.2 67.4627 53.725 67.4627C47.25 67.4627 42 62.2127 42 55.7377C42 49.2627 47.25 44.0127 53.725 44.0127C58.275 44.0127 62.3875 46.6377 64.3125 50.7502" stroke="#1999E3" stroke-width="1.4525" stroke-linecap="round" stroke-linejoin="round"/>
</g>
<defs>
<clipPath id="clip0_112_491">
<rect width="70" height="70" fill="white"/>
</clipPath>
</defs>
</svg>
