<svg width="40" height="53" viewBox="0 0 40 53" fill="none" xmlns="http://www.w3.org/2000/svg">
<path d="M6.4375 33.6625C-1 26.225 -1 14.0625 6.4375 6.625C13.875 -0.8125 26.0375 -0.8125 33.475 6.625C39.8625 13.0125 40.9125 22.9875 36.0125 30.6" stroke="#1999E3" stroke-width="1.4525" stroke-linecap="round" stroke-linejoin="round"/>
<path d="M8.71252 26.9252C5.03752 20.8877 6.96252 13.1002 13 9.42517C19.0375 5.75017 26.825 7.67517 30.5 13.7127C32.8625 17.6502 32.95 22.6377 30.675 26.6627" stroke="#1999E3" stroke-width="1.4525" stroke-linecap="round" stroke-linejoin="round"/>
<path d="M13.4375 21.9375C12.475 18.525 14.4875 15.025 17.9 14.0625C21.3125 13.1 24.8125 15.1125 25.775 18.525C26.0375 19.4875 26.0375 20.45 25.8625 21.4125" stroke="#1999E3" stroke-width="1.4525" stroke-linecap="round" stroke-linejoin="round"/>
<path d="M19.65 21.5C19.3875 21.5 19.2125 21.5 18.95 21.5875C17.725 21.9375 16.9375 22.9875 17.025 24.2125L17.375 38.3875C16.7625 36.9875 15.45 34.5375 13.7 33.925C13.4375 33.8375 13.0875 33.75 12.7375 33.75C12.3 33.75 11.8625 33.8375 11.5125 34.1C10.2 34.8 9.67504 36.375 10.375 37.6875L15.0125 46.6125C15.1875 46.875 18.075 52.0375 22.8 52.0375H22.975L29.3625 51.8625C33.9125 51.775 37.5 48.0125 37.4125 43.4625L37.325 38.2125V36.55C37.325 35.0625 36.1875 33.925 34.7 33.925C34.4375 33.925 34.2625 33.925 34 34.0125C33.3 34.1875 32.775 34.5375 32.425 35.15V34.0125C32.425 32.525 31.2875 31.3875 29.8 31.3875C29.5375 31.3875 29.3625 31.3875 29.1 31.475C28.4875 31.65 27.9625 32 27.6125 32.525V31.65C27.525 30.1625 26.3875 29.025 24.9 29.025H24.8125C24.1125 29.025 23.4125 29.375 22.8875 29.9C22.8 29.9875 22.7125 30.1625 22.625 30.25L22.45 24.0375C22.275 22.55 21.1375 21.5 19.65 21.5Z" stroke="#1999E3" stroke-width="1.4525" stroke-linecap="round" stroke-linejoin="round"/>
</svg>
