<svg width="615" height="191" viewBox="0 0 615 191" fill="none" xmlns="http://www.w3.org/2000/svg">
<path d="M2.49318 9.01223C1.81318 9.01223 1.13318 8.75891 0.653178 8.25224L0.573181 8.1589C-0.280152 7.26556 -0.146777 5.93224 0.866557 5.17224C1.87989 4.42558 3.39986 4.53225 4.25319 5.42558L4.33319 5.5189C5.18652 6.41224 5.05323 7.74558 4.0399 8.50558C3.58656 8.85224 3.03985 9.01223 2.49318 9.01223Z" fill="#1d4e89"/>
<path d="M4.0399 87.6121C5.05323 86.8521 5.18652 85.5188 4.33319 84.6255L4.25319 84.5321C3.39986 83.6388 1.87989 83.5188 0.866557 84.2788C-0.146777 85.0388 -0.280152 86.3722 0.573181 87.2655L0.653178 87.3588C1.13318 87.8521 1.81318 88.1188 2.49318 88.1188C3.03985 88.1055 3.58656 87.9455 4.0399 87.6121Z" fill="#1d4e89"/>
<path d="M4.0402 166.599C5.05354 165.839 5.18682 164.505 4.32015 163.612L4.24015 163.519C3.38682 162.625 1.86685 162.505 0.853517 163.265C-0.159817 164.025 -0.293179 165.359 0.573487 166.252L0.653484 166.345C1.13348 166.839 1.81349 167.092 2.49349 167.092C3.04016 167.105 3.58687 166.932 4.0402 166.599Z" fill="#1d4e89"/>
<path d="M49.2131 8.81221C50.1065 8.14554 50.2265 6.97221 49.4798 6.18554L47.6132 4.22554C46.8665 3.43887 45.5198 3.33221 44.6265 3.99888C43.7331 4.66554 43.6132 5.83888 44.3599 6.62554L46.2265 8.58555C46.6398 9.02555 47.2398 9.25221 47.8532 9.25221C48.3332 9.23888 48.8131 9.10554 49.2131 8.81221Z" fill="#1d4e89"/>
<path d="M94.5467 9.25217C95.44 8.58551 95.56 7.41217 94.8 6.6255L92.0801 3.77217C91.3334 2.9855 89.9868 2.87884 89.0934 3.54551C88.2001 4.21217 88.0801 5.38551 88.8401 6.17218L91.5601 9.02551C91.9734 9.46551 92.5734 9.69217 93.1868 9.69217C93.6668 9.69217 94.1467 9.54551 94.5467 9.25217Z" fill="#1d4e89"/>
<path d="M139.853 9.67899C140.747 9.01232 140.867 7.83899 140.12 7.05232L136.587 3.34566C135.84 2.55899 134.493 2.45233 133.6 3.11899C132.707 3.78566 132.587 4.959 133.333 5.74566L136.867 9.45233C137.28 9.89233 137.893 10.119 138.493 10.119C138.973 10.119 139.453 9.97232 139.853 9.67899Z" fill="#1d4e89"/>
<path d="M185.173 10.1056C186.067 9.4389 186.187 8.26556 185.427 7.4789L181.08 2.9189C180.333 2.13223 178.987 2.02557 178.093 2.69224C177.2 3.3589 177.08 4.53224 177.827 5.3189L182.173 9.8789C182.587 10.3189 183.187 10.5456 183.8 10.5456C184.293 10.5456 184.773 10.3989 185.173 10.1056Z" fill="#1d4e89"/>
<path d="M230.44 10.5055C231.333 9.83886 231.453 8.66553 230.693 7.87886L225.6 2.53218C224.84 1.74551 223.507 1.63885 222.613 2.30552C221.72 2.97218 221.6 4.14552 222.347 4.93218L227.44 10.2789C227.853 10.7189 228.453 10.9455 229.067 10.9455C229.56 10.9322 230.053 10.7989 230.44 10.5055Z" fill="#1d4e89"/>
<path d="M275.693 10.8523C276.587 10.1856 276.706 9.01231 275.96 8.22564L270.187 2.17232C269.44 1.38565 268.093 1.27899 267.2 1.94565C266.307 2.61232 266.187 3.78563 266.947 4.5723L272.72 10.6256C273.133 11.0656 273.733 11.2923 274.347 11.2923C274.813 11.2923 275.293 11.159 275.693 10.8523Z" fill="#1d4e89"/>
<path d="M320.92 11.1988C321.813 10.5321 321.933 9.35881 321.173 8.57214L314.76 1.83882C314.013 1.05216 312.667 0.945491 311.773 1.61216C310.88 2.27882 310.76 3.45214 311.507 4.23881L317.92 10.9721C318.333 11.4121 318.947 11.6388 319.547 11.6388C320.04 11.6388 320.52 11.4921 320.92 11.1988Z" fill="#1d4e89"/>
<path d="M343.507 11.3323C344.4 10.6657 344.52 9.49233 343.773 8.70566L337.08 1.69234C336.334 0.905671 334.987 0.799006 334.093 1.46567C333.2 2.13234 333.08 3.30567 333.84 4.09234L340.533 11.1057C340.947 11.5457 341.56 11.7723 342.16 11.7723C342.627 11.7723 343.107 11.639 343.507 11.3323Z" fill="#1d4e89"/>
<path d="M366.12 11.519C367.013 10.8523 367.133 9.679 366.373 8.89233L359.347 1.519C358.6 0.732331 357.253 0.625667 356.36 1.29233C355.467 1.959 355.347 3.13233 356.093 3.919L363.12 11.2923C363.533 11.7323 364.133 11.959 364.747 11.959C365.253 11.959 365.733 11.8123 366.12 11.519Z" fill="#1d4e89"/>
<path d="M411.267 11.7589C412.16 11.0923 412.28 9.91893 411.533 9.13226L404.027 1.26558C403.267 0.478913 401.933 0.372249 401.04 1.03892C400.147 1.70558 400.027 2.87892 400.773 3.66558L408.28 11.5322C408.693 11.9722 409.293 12.1989 409.907 12.1989C410.387 12.1989 410.88 12.0523 411.267 11.7589Z" fill="#1d4e89"/>
<path d="M433.814 11.879C434.707 11.2123 434.827 10.039 434.08 9.25231L426.374 1.17232C425.627 0.385651 424.28 0.278987 423.387 0.945654C422.494 1.61232 422.374 2.78563 423.134 3.5723L430.84 11.6523C431.254 12.0923 431.867 12.319 432.467 12.319C432.947 12.3057 433.427 12.1723 433.814 11.879Z" fill="#1d4e89"/>
<path d="M456.374 11.9854C457.267 11.3187 457.387 10.1454 456.627 9.35872L448.72 1.06538C447.974 0.278718 446.627 0.172053 445.734 0.83872C444.84 1.50539 444.72 2.67872 445.48 3.46539L453.387 11.7587C453.8 12.1987 454.414 12.4254 455.014 12.4254C455.494 12.4121 455.974 12.2787 456.374 11.9854Z" fill="#1d4e89"/>
<path d="M501.453 12.1588C502.346 11.4922 502.466 10.3188 501.706 9.53218L493.453 0.878861C492.706 0.0921941 491.373 -0.0144702 490.466 0.652196C489.573 1.31886 489.453 2.4922 490.213 3.27886L498.466 11.9322C498.88 12.3722 499.48 12.5989 500.093 12.5989C500.573 12.5989 501.053 12.4522 501.453 12.1588Z" fill="#1d4e89"/>
<path d="M523.946 12.2123C524.84 11.5456 524.96 10.3723 524.2 9.58565L515.84 0.825638C515.093 0.0389714 513.746 -0.0676928 512.853 0.598974C511.96 1.26564 511.84 2.43898 512.586 3.22564L520.946 11.9857C521.36 12.4257 521.96 12.6523 522.573 12.6523C523.08 12.6523 523.56 12.5056 523.946 12.2123Z" fill="#1d4e89"/>
<path d="M546.467 12.2789C547.36 11.6122 547.48 10.4389 546.72 9.65224L538.227 0.74556C537.48 -0.0411067 536.147 -0.147771 535.24 0.518896C534.347 1.18556 534.227 2.3589 534.987 3.14556L543.48 12.0522C543.893 12.4922 544.493 12.7189 545.106 12.7189C545.6 12.7189 546.08 12.5722 546.467 12.2789Z" fill="#1d4e89"/>
<path d="M568.933 12.3055C569.827 11.6388 569.947 10.4655 569.2 9.67879L560.68 0.732132C559.92 -0.0545344 558.587 -0.161199 557.693 0.505468C556.8 1.17213 556.68 2.34547 557.427 3.13214L565.947 12.0788C566.36 12.5188 566.973 12.7455 567.573 12.7455C568.067 12.7321 568.547 12.5988 568.933 12.3055Z" fill="#1d4e89"/>
<path d="M591.44 12.3589C592.333 11.6923 592.453 10.5189 591.693 9.73225L583.067 0.678909C582.307 -0.107757 580.973 -0.214421 580.08 0.452245C579.187 1.11891 579.067 2.29225 579.813 3.07891L588.44 12.1323C588.853 12.5723 589.453 12.7989 590.067 12.7989C590.573 12.7856 591.053 12.6523 591.44 12.3589Z" fill="#1d4e89"/>
<path d="M613.907 12.3721C614.8 11.7055 614.92 10.5321 614.16 9.74548L605.507 0.665482C604.76 -0.121185 603.414 -0.227849 602.52 0.438818C601.627 1.10548 601.507 2.27882 602.267 3.06549L610.92 12.1455C611.333 12.5855 611.934 12.8121 612.547 12.8121C613.04 12.8121 613.52 12.6655 613.907 12.3721Z" fill="#1d4e89"/>
<path d="M162.507 29.6521C163.4 28.9854 163.52 27.8121 162.774 27.0254L158.84 22.892C158.094 22.1054 156.747 21.9987 155.854 22.6654C154.96 23.332 154.84 24.5054 155.587 25.292L159.52 29.4254C159.934 29.8654 160.547 30.0921 161.147 30.0921C161.627 30.0921 162.12 29.9587 162.507 29.6521Z" fill="#1d4e89"/>
<path d="M207.8 30.0655C208.693 29.3988 208.813 28.2255 208.053 27.4388L203.333 22.4921C202.587 21.7055 201.24 21.5988 200.347 22.2655C199.454 22.9321 199.334 24.1055 200.094 24.8921L204.813 29.8388C205.227 30.2788 205.84 30.5055 206.44 30.5055C206.934 30.5055 207.413 30.3588 207.8 30.0655Z" fill="#1d4e89"/>
<path d="M253.067 30.4389C253.96 29.7722 254.08 28.5989 253.32 27.8122L247.894 22.1189C247.147 21.3322 245.8 21.2255 244.907 21.8922C244.014 22.5589 243.894 23.7322 244.654 24.5189L250.08 30.2122C250.494 30.6522 251.107 30.8789 251.707 30.8789C252.187 30.8789 252.68 30.7322 253.067 30.4389Z" fill="#1d4e89"/>
<path d="M275.693 30.6121C276.587 29.9454 276.706 28.7721 275.96 27.9854L270.187 21.9321C269.44 21.1454 268.093 21.0388 267.2 21.7054C266.307 22.3721 266.187 23.5454 266.947 24.3321L272.72 30.3854C273.133 30.8254 273.733 31.0521 274.347 31.0521C274.813 31.0521 275.293 30.9188 275.693 30.6121Z" fill="#1d4e89"/>
<path d="M298.293 30.7856C299.187 30.1189 299.307 28.9456 298.56 28.1589L292.48 21.7856C291.733 20.9989 290.387 20.8923 289.493 21.5589C288.6 22.2256 288.48 23.3989 289.24 24.1856L295.32 30.5589C295.733 30.9989 296.347 31.2256 296.947 31.2256C297.413 31.2123 297.907 31.0789 298.293 30.7856Z" fill="#1d4e89"/>
<path d="M320.92 30.9588C321.813 30.2922 321.933 29.1188 321.173 28.3322L314.76 21.5988C314.013 20.8122 312.667 20.7055 311.773 21.3722C310.88 22.0388 310.76 23.2122 311.507 23.9988L317.92 30.7322C318.333 31.1722 318.947 31.3988 319.547 31.3988C320.04 31.3988 320.52 31.2522 320.92 30.9588Z" fill="#1d4e89"/>
<path d="M343.507 31.0921C344.4 30.4255 344.52 29.2521 343.773 28.4654L337.08 21.4521C336.334 20.6654 334.987 20.5588 334.093 21.2254C333.2 21.8921 333.08 23.0654 333.84 23.8521L340.533 30.8654C340.947 31.3054 341.56 31.5321 342.16 31.5321C342.627 31.5321 343.107 31.3988 343.507 31.0921Z" fill="#1d4e89"/>
<path d="M366.12 31.2788C367.013 30.6121 367.133 29.4388 366.373 28.6521L359.347 21.2788C358.6 20.4921 357.253 20.3854 356.36 21.0521C355.467 21.7188 355.347 22.8921 356.093 23.6788L363.12 31.0521C363.533 31.4921 364.133 31.7188 364.747 31.7188C365.253 31.7188 365.733 31.5721 366.12 31.2788Z" fill="#1d4e89"/>
<path d="M388.693 31.3988C389.587 30.7321 389.707 29.5588 388.947 28.7721L381.68 21.1455C380.933 20.3588 379.587 20.2521 378.693 20.9188C377.8 21.5855 377.68 22.7588 378.427 23.5455L385.693 31.1721C386.107 31.6121 386.707 31.8388 387.32 31.8388C387.813 31.8388 388.307 31.6921 388.693 31.3988Z" fill="#1d4e89"/>
<path d="M411.267 31.5321C412.16 30.8654 412.28 29.6921 411.533 28.9054L404.027 21.0388C403.267 20.2521 401.933 20.1454 401.04 20.8121C400.147 21.4788 400.027 22.6521 400.773 23.4388L408.28 31.3054C408.693 31.7454 409.293 31.9721 409.907 31.9721C410.387 31.9588 410.88 31.8254 411.267 31.5321Z" fill="#1d4e89"/>
<path d="M433.814 31.6387C434.707 30.9721 434.827 29.7987 434.08 29.0121L426.374 20.9321C425.627 20.1454 424.28 20.0388 423.387 20.7054C422.494 21.3721 422.374 22.5454 423.134 23.3321L430.84 31.4121C431.254 31.8521 431.867 32.0788 432.467 32.0788C432.947 32.0654 433.427 31.9321 433.814 31.6387Z" fill="#1d4e89"/>
<path d="M456.374 31.7456C457.267 31.079 457.387 29.9056 456.627 29.119L448.72 20.8256C447.974 20.039 446.627 19.9323 445.734 20.599C444.84 21.2656 444.72 22.439 445.48 23.2256L453.387 31.5323C453.8 31.9723 454.414 32.199 455.014 32.199C455.494 32.1723 455.974 32.039 456.374 31.7456Z" fill="#1d4e89"/>
<path d="M478.907 31.8254C479.8 31.1587 479.92 29.9854 479.173 29.1987L471.093 20.7187C470.347 19.932 469 19.8254 468.107 20.492C467.213 21.1587 467.093 22.332 467.853 23.1187L475.933 31.5987C476.347 32.0387 476.947 32.2654 477.56 32.2654C478.04 32.2654 478.52 32.132 478.907 31.8254Z" fill="#1d4e89"/>
<path d="M501.453 31.9189C502.346 31.2522 502.466 30.0789 501.706 29.2922L493.453 20.6389C492.706 19.8522 491.373 19.7455 490.466 20.4122C489.573 21.0789 489.453 22.2522 490.213 23.0389L498.466 31.6922C498.88 32.1322 499.48 32.3589 500.093 32.3589C500.573 32.3589 501.053 32.2122 501.453 31.9189Z" fill="#1d4e89"/>
<path d="M523.946 31.9721C524.84 31.3054 524.96 30.1321 524.2 29.3454L515.84 20.5854C515.093 19.7987 513.746 19.6921 512.853 20.3587C511.96 21.0254 511.84 22.1987 512.586 22.9854L520.946 31.7454C521.36 32.1854 521.96 32.4121 522.573 32.4121C523.08 32.4121 523.56 32.2654 523.946 31.9721Z" fill="#1d4e89"/>
<path d="M546.467 32.0389C547.36 31.3722 547.48 30.1989 546.72 29.4122L538.227 20.5056C537.48 19.7189 536.147 19.6122 535.24 20.2789C534.347 20.9456 534.227 22.1189 534.987 22.9056L543.48 31.8122C543.893 32.2522 544.493 32.4789 545.106 32.4789C545.6 32.4789 546.08 32.3322 546.467 32.0389Z" fill="#1d4e89"/>
<path d="M568.933 32.0655C569.827 31.3988 569.947 30.2255 569.2 29.4388L560.68 20.4921C559.92 19.7055 558.587 19.5988 557.693 20.2655C556.8 20.9321 556.68 22.1055 557.427 22.8921L565.947 31.8388C566.36 32.2788 566.973 32.5055 567.573 32.5055C568.067 32.5055 568.547 32.3588 568.933 32.0655Z" fill="#1d4e89"/>
<path d="M591.44 32.1189C592.333 31.4522 592.453 30.2789 591.693 29.4922L583.067 20.4389C582.307 19.6523 580.973 19.5456 580.08 20.2123C579.187 20.8789 579.067 22.0523 579.813 22.8389L588.44 31.8922C588.853 32.3322 589.453 32.5589 590.067 32.5589C590.573 32.5456 591.053 32.4122 591.44 32.1189Z" fill="#1d4e89"/>
<path d="M613.907 32.1322C614.8 31.4655 614.92 30.2922 614.16 29.5055L605.507 20.4255C604.76 19.6388 603.414 19.5322 602.52 20.1988C601.627 20.8655 601.507 22.0388 602.267 22.8255L610.92 31.9055C611.333 32.3455 611.934 32.5722 612.547 32.5722C613.04 32.5722 613.52 32.4255 613.907 32.1322Z" fill="#1d4e89"/>
<path d="M49.2134 48.3322C50.1067 47.6656 50.2267 46.4922 49.4667 45.7056L47.6001 43.7456C46.8534 42.9589 45.5068 42.8522 44.6134 43.5189C43.7201 44.1856 43.6001 45.3589 44.3601 46.1456L46.2267 48.1056C46.6401 48.5456 47.2401 48.7722 47.8534 48.7722C48.3334 48.7722 48.8134 48.6256 49.2134 48.3322Z" fill="#1d4e89"/>
<path d="M94.5467 48.7856C95.44 48.119 95.56 46.9456 94.8 46.159L92.0801 43.3056C91.3334 42.519 89.9868 42.4123 89.0934 43.079C88.2001 43.7456 88.0801 44.919 88.8401 45.7056L91.5601 48.559C91.9734 48.999 92.5734 49.2256 93.1868 49.2256C93.6668 49.2123 94.1467 49.079 94.5467 48.7856Z" fill="#1d4e89"/>
<path d="M139.853 49.1988C140.747 48.5321 140.867 47.3588 140.12 46.5721L136.587 42.8654C135.84 42.0788 134.493 41.9721 133.6 42.6388C132.707 43.3054 132.587 44.4788 133.333 45.2654L136.867 48.9721C137.28 49.4121 137.893 49.6388 138.493 49.6388C138.973 49.6388 139.453 49.5054 139.853 49.1988Z" fill="#1d4e89"/>
<path d="M185.173 49.6388C186.066 48.9721 186.186 47.7988 185.44 47.0121L181.093 42.4521C180.333 41.6654 179 41.5588 178.106 42.2254C177.213 42.8788 177.093 44.0654 177.84 44.8521L182.186 49.4121C182.6 49.8521 183.2 50.0788 183.813 50.0788C184.293 50.0654 184.773 49.9188 185.173 49.6388Z" fill="#1d4e89"/>
<path d="M230.44 50.0255C231.333 49.3589 231.453 48.1855 230.693 47.3989L225.6 42.0522C224.84 41.2655 223.507 41.1589 222.613 41.8255C221.72 42.4922 221.6 43.6655 222.347 44.4522L227.44 49.7989C227.853 50.2389 228.453 50.4656 229.067 50.4656C229.56 50.4656 230.053 50.3189 230.44 50.0255Z" fill="#1d4e89"/>
<path d="M275.693 50.3855C276.587 49.7188 276.706 48.5455 275.96 47.7589L270.187 41.7055C269.44 40.9189 268.093 40.8122 267.2 41.4789C266.307 42.1455 266.187 43.3189 266.947 44.1055L272.72 50.1588C273.133 50.5988 273.733 50.8255 274.347 50.8255C274.813 50.8122 275.293 50.6788 275.693 50.3855Z" fill="#1d4e89"/>
<path d="M320.92 50.7188C321.813 50.0522 321.933 48.8788 321.173 48.0922L314.76 41.3588C314.013 40.5722 312.667 40.4655 311.773 41.1322C310.88 41.7988 310.76 42.9722 311.507 43.7588L317.92 50.4922C318.333 50.9322 318.947 51.1588 319.547 51.1588C320.04 51.1588 320.52 51.0122 320.92 50.7188Z" fill="#1d4e89"/>
<path d="M366.12 51.0388C367.013 50.3721 367.133 49.1988 366.373 48.4121L359.347 41.0388C358.6 40.2521 357.253 40.1454 356.36 40.8121C355.467 41.4788 355.347 42.6521 356.093 43.4388L363.12 50.8121C363.533 51.2521 364.133 51.4788 364.747 51.4788C365.253 51.4788 365.733 51.3321 366.12 51.0388Z" fill="#1d4e89"/>
<path d="M388.693 51.1722C389.587 50.5056 389.707 49.3322 388.947 48.5456L381.68 40.9189C380.933 40.1322 379.587 40.0256 378.693 40.6922C377.8 41.3589 377.68 42.5322 378.427 43.3189L385.693 50.9456C386.107 51.3856 386.707 51.6122 387.32 51.6122C387.813 51.5989 388.307 51.4656 388.693 51.1722Z" fill="#1d4e89"/>
<path d="M411.267 51.2921C412.16 50.6255 412.28 49.4521 411.533 48.6655L404.027 40.7988C403.267 40.0121 401.933 39.9054 401.04 40.5721C400.147 41.2388 400.027 42.4121 400.773 43.1988L408.28 51.0655C408.693 51.5055 409.293 51.7321 409.907 51.7321C410.387 51.7188 410.88 51.5855 411.267 51.2921Z" fill="#1d4e89"/>
<path d="M456.374 51.5054C457.267 50.8387 457.387 49.6654 456.627 48.8787L448.72 40.5854C447.974 39.7987 446.627 39.6921 445.734 40.3587C444.84 41.0254 444.72 42.1987 445.48 42.9854L453.387 51.2921C453.8 51.7321 454.414 51.9587 455.014 51.9587C455.494 51.9454 455.974 51.7987 456.374 51.5054Z" fill="#1d4e89"/>
<path d="M478.907 51.5988C479.8 50.9321 479.92 49.7588 479.173 48.9721L471.093 40.4921C470.347 39.7055 469 39.5988 468.107 40.2655C467.213 40.9321 467.093 42.1055 467.853 42.8921L475.933 51.3721C476.347 51.8121 476.947 52.0388 477.56 52.0388C478.04 52.0255 478.52 51.8921 478.907 51.5988Z" fill="#1d4e89"/>
<path d="M501.453 51.6789C502.346 51.0122 502.466 49.8389 501.706 49.0522L493.453 40.3989C492.706 39.6122 491.373 39.5055 490.466 40.1722C489.573 40.8389 489.453 42.0122 490.213 42.7989L498.466 51.4522C498.88 51.8922 499.48 52.1189 500.093 52.1189C500.573 52.1189 501.053 51.9722 501.453 51.6789Z" fill="#1d4e89"/>
<path d="M523.946 51.7323C524.84 51.0657 524.96 49.8923 524.2 49.1057L515.84 40.3457C515.093 39.559 513.746 39.4523 512.853 40.119C511.96 40.7857 511.84 41.959 512.586 42.7457L520.946 51.5057C521.36 51.9457 521.96 52.1723 522.573 52.1723C523.08 52.1723 523.56 52.0257 523.946 51.7323Z" fill="#1d4e89"/>
<path d="M546.467 51.7989C547.36 51.1323 547.48 49.9589 546.72 49.1723L538.227 40.2656C537.48 39.4789 536.147 39.3722 535.24 40.0389C534.347 40.7056 534.227 41.8789 534.987 42.6656L543.48 51.5722C543.893 52.0122 544.493 52.2389 545.106 52.2389C545.6 52.2389 546.08 52.0923 546.467 51.7989Z" fill="#1d4e89"/>
<path d="M568.933 51.8256C569.827 51.1589 569.947 49.9856 569.2 49.1989L560.68 40.2656C559.92 39.4789 558.587 39.3722 557.693 40.0389C556.8 40.7056 556.68 41.8789 557.427 42.6656L565.947 51.5989C566.36 52.0389 566.973 52.2656 567.573 52.2656C568.067 52.2656 568.547 52.1189 568.933 51.8256Z" fill="#1d4e89"/>
<path d="M591.44 51.8787C592.333 51.212 592.453 50.0387 591.693 49.252L583.067 40.1987C582.307 39.412 580.973 39.3054 580.08 39.972C579.187 40.6387 579.067 41.812 579.813 42.5987L588.44 51.652C588.853 52.092 589.453 52.3187 590.067 52.3187C590.573 52.3187 591.053 52.172 591.44 51.8787Z" fill="#1d4e89"/>
<path d="M613.907 51.8922C614.8 51.2255 614.92 50.0522 614.16 49.2655L605.507 40.1855C604.76 39.3988 603.414 39.2922 602.52 39.9588C601.627 40.6255 601.507 41.7988 602.267 42.5855L610.92 51.6655C611.333 52.1055 611.934 52.3322 612.547 52.3322C613.04 52.3322 613.52 52.1855 613.907 51.8922Z" fill="#1d4e89"/>
<path d="M162.507 69.1855C163.4 68.5188 163.52 67.3455 162.774 66.5588L158.84 62.4255C158.094 61.6388 156.747 61.5322 155.854 62.1988C154.96 62.8655 154.84 64.0388 155.587 64.8255L159.52 68.9588C159.934 69.3988 160.547 69.6255 161.147 69.6255C161.627 69.6255 162.12 69.4788 162.507 69.1855Z" fill="#1d4e89"/>
<path d="M207.8 69.5855C208.693 68.9188 208.813 67.7455 208.053 66.9588L203.333 62.0122C202.587 61.2255 201.24 61.1188 200.347 61.7855C199.454 62.4522 199.334 63.6255 200.094 64.4122L204.813 69.3588C205.227 69.7988 205.84 70.0255 206.44 70.0255C206.934 70.0255 207.413 69.8788 207.8 69.5855Z" fill="#1d4e89"/>
<path d="M230.44 69.7855C231.333 69.1189 231.453 67.9455 230.693 67.1589L225.6 61.8122C224.84 61.0255 223.507 60.9189 222.613 61.5855C221.72 62.2522 221.6 63.4255 222.347 64.2122L227.44 69.5589C227.853 69.9989 228.453 70.2256 229.067 70.2256C229.56 70.2256 230.053 70.0789 230.44 69.7855Z" fill="#1d4e89"/>
<path d="M253.067 69.9589C253.96 69.2922 254.08 68.1189 253.32 67.3322L247.894 61.6389C247.147 60.8522 245.8 60.7455 244.907 61.4122C244.014 62.0789 243.894 63.2522 244.654 64.0389L250.08 69.7322C250.494 70.1722 251.107 70.3989 251.707 70.3989C252.187 70.3989 252.68 70.2655 253.067 69.9589Z" fill="#1d4e89"/>
<path d="M298.293 70.3056C299.187 69.639 299.307 68.4656 298.56 67.679L292.48 61.3056C291.733 60.519 290.387 60.4123 289.493 61.079C288.6 61.7456 288.48 62.919 289.24 63.7056L295.32 70.079C295.733 70.519 296.347 70.7456 296.947 70.7456C297.413 70.7456 297.907 70.599 298.293 70.3056Z" fill="#1d4e89"/>
<path d="M320.92 70.4788C321.813 69.8122 321.933 68.6389 321.173 67.8522L314.76 61.1189C314.013 60.3322 312.667 60.2255 311.773 60.8922C310.88 61.5589 310.76 62.7322 311.507 63.5189L317.92 70.2522C318.333 70.6922 318.947 70.9189 319.547 70.9189C320.04 70.9189 320.52 70.7722 320.92 70.4788Z" fill="#1d4e89"/>
<path d="M343.507 70.6255C344.4 69.9589 344.52 68.7855 343.773 67.9989L337.08 60.9856C336.334 60.1989 334.987 60.0922 334.093 60.7589C333.2 61.4256 333.08 62.5989 333.84 63.3855L340.533 70.3989C340.947 70.8389 341.56 71.0655 342.16 71.0655C342.627 71.0655 343.107 70.9189 343.507 70.6255Z" fill="#1d4e89"/>
<path d="M366.12 70.7988C367.013 70.1321 367.133 68.9588 366.373 68.1721L359.347 60.7988C358.6 60.0121 357.253 59.9054 356.36 60.5721C355.467 61.2388 355.347 62.4121 356.093 63.1988L363.12 70.5721C363.533 71.0121 364.133 71.2388 364.747 71.2388C365.253 71.2388 365.733 71.0921 366.12 70.7988Z" fill="#1d4e89"/>
<path d="M388.693 70.9323C389.587 70.2656 389.707 69.0923 388.947 68.3056L381.68 60.6789C380.933 59.8922 379.587 59.7856 378.693 60.4522C377.8 61.1189 377.68 62.2922 378.427 63.0789L385.693 70.7056C386.107 71.1456 386.707 71.3722 387.32 71.3722C387.813 71.3589 388.307 71.2256 388.693 70.9323Z" fill="#1d4e89"/>
<path d="M411.267 71.0521C412.16 70.3855 412.28 69.2121 411.533 68.4255L404.027 60.5588C403.267 59.7721 401.933 59.6655 401.04 60.3321C400.147 60.9988 400.027 62.1721 400.773 62.9588L408.28 70.8255C408.693 71.2655 409.293 71.4921 409.907 71.4921C410.387 71.4921 410.88 71.3455 411.267 71.0521Z" fill="#1d4e89"/>
<path d="M433.814 71.1588C434.707 70.4921 434.827 69.3188 434.08 68.5321L426.374 60.4521C425.627 59.6654 424.28 59.5588 423.387 60.2254C422.494 60.8921 422.374 62.0654 423.134 62.8521L430.84 70.9321C431.254 71.3721 431.867 71.5988 432.467 71.5988C432.947 71.5988 433.427 71.4521 433.814 71.1588Z" fill="#1d4e89"/>
<path d="M456.374 71.2656C457.267 70.5989 457.387 69.4256 456.627 68.6389L448.72 60.3322C447.974 59.5456 446.627 59.4389 445.734 60.1056C444.84 60.7722 444.72 61.9456 445.48 62.7322L453.387 71.0389C453.8 71.4789 454.414 71.7056 455.014 71.7056C455.494 71.7056 455.974 71.5589 456.374 71.2656Z" fill="#1d4e89"/>
<path d="M478.907 71.3588C479.8 70.6921 479.92 69.5188 479.173 68.7321L471.093 60.2522C470.347 59.4655 469 59.3588 468.107 60.0255C467.213 60.6922 467.093 61.8655 467.853 62.6522L475.933 71.1322C476.347 71.5722 476.947 71.7988 477.56 71.7988C478.04 71.7855 478.52 71.6521 478.907 71.3588Z" fill="#1d4e89"/>
<path d="M501.453 71.4389C502.346 70.7722 502.466 69.5989 501.706 68.8122L493.453 60.1589C492.706 59.3722 491.373 59.2656 490.466 59.9322C489.573 60.5989 489.453 61.7722 490.213 62.5589L498.466 71.2122C498.88 71.6522 499.48 71.8789 500.093 71.8789C500.573 71.8789 501.053 71.7322 501.453 71.4389Z" fill="#1d4e89"/>
<path d="M523.946 71.4921C524.84 70.8254 524.96 69.6521 524.2 68.8654L515.84 60.1054C515.093 59.3188 513.746 59.2121 512.853 59.8788C511.96 60.5454 511.84 61.7188 512.586 62.5054L520.946 71.2654C521.36 71.7054 521.96 71.9321 522.573 71.9321C523.08 71.9321 523.56 71.7854 523.946 71.4921Z" fill="#1d4e89"/>
<path d="M546.467 71.5721C547.36 70.9054 547.48 69.7321 546.72 68.9454L538.227 60.0388C537.48 59.2521 536.147 59.1454 535.24 59.8121C534.347 60.4788 534.227 61.6521 534.987 62.4388L543.48 71.3455C543.893 71.7855 544.493 72.0121 545.106 72.0121C545.6 72.0121 546.08 71.8654 546.467 71.5721Z" fill="#1d4e89"/>
<path d="M568.933 71.5856C569.827 70.9189 569.947 69.7456 569.2 68.9589L560.68 60.0256C559.92 59.2389 558.587 59.1323 557.693 59.7989C556.8 60.4656 556.68 61.6389 557.427 62.4256L565.947 71.3589C566.36 71.7989 566.973 72.0256 567.573 72.0256C568.067 72.0256 568.547 71.8789 568.933 71.5856Z" fill="#1d4e89"/>
<path d="M591.44 71.639C592.333 70.9723 592.453 69.799 591.693 69.0123L583.067 59.9589C582.307 59.1723 580.973 59.0656 580.08 59.7323C579.187 60.3989 579.067 61.5723 579.813 62.3589L588.44 71.4123C588.853 71.8523 589.453 72.0789 590.067 72.0789C590.573 72.0789 591.053 71.9323 591.44 71.639Z" fill="#1d4e89"/>
<path d="M613.907 71.6522C614.8 70.9855 614.92 69.8122 614.16 69.0255L605.507 59.9455C604.76 59.1589 603.414 59.0522 602.52 59.7188C601.627 60.3855 601.507 61.5588 602.267 62.3455L610.92 71.4255C611.333 71.8655 611.934 72.0922 612.547 72.0922C613.04 72.0922 613.52 71.9455 613.907 71.6522Z" fill="#1d4e89"/>
<path d="M49.2134 87.8523C50.1067 87.1856 50.2267 86.0123 49.4667 85.2256L47.6001 83.2656C46.8534 82.4789 45.5068 82.3722 44.6134 83.0389C43.7201 83.7056 43.6001 84.8789 44.3601 85.6656L46.2267 87.6256C46.6401 88.0656 47.2401 88.2922 47.8534 88.2922C48.3334 88.2922 48.8134 88.1456 49.2134 87.8523Z" fill="#1d4e89"/>
<path d="M94.5467 88.3056C95.44 87.639 95.56 86.4656 94.8 85.679L92.0801 82.8256C91.3334 82.039 89.9868 81.9323 89.0934 82.599C88.2001 83.2656 88.0801 84.439 88.8401 85.2257L91.5601 88.079C91.9734 88.519 92.5734 88.7456 93.1868 88.7456C93.6668 88.7323 94.1467 88.599 94.5467 88.3056Z" fill="#1d4e89"/>
<path d="M139.853 88.7322C140.747 88.0655 140.867 86.8922 140.12 86.1055L136.587 82.3989C135.84 81.6122 134.493 81.5056 133.6 82.1722C132.707 82.8389 132.587 84.0122 133.333 84.7989L136.867 88.5056C137.28 88.9456 137.893 89.1722 138.493 89.1722C138.973 89.1722 139.453 89.0255 139.853 88.7322Z" fill="#1d4e89"/>
<path d="M185.173 89.1588C186.067 88.4921 186.187 87.3188 185.427 86.5321L181.08 81.9721C180.333 81.1855 178.987 81.0788 178.093 81.7454C177.2 82.4121 177.08 83.5855 177.827 84.3721L182.173 88.9321C182.587 89.3721 183.187 89.5988 183.8 89.5988C184.293 89.5988 184.773 89.4521 185.173 89.1588Z" fill="#1d4e89"/>
<path d="M230.44 89.5456C231.333 88.8789 231.453 87.7056 230.693 86.9189L225.6 81.5722C224.84 80.7855 223.507 80.6789 222.613 81.3456C221.72 82.0122 221.6 83.1856 222.347 83.9722L227.44 89.3189C227.853 89.7589 228.453 89.9855 229.067 89.9855C229.56 89.9855 230.053 89.8389 230.44 89.5456Z" fill="#1d4e89"/>
<path d="M275.693 89.9055C276.587 89.2389 276.706 88.0655 275.96 87.2789L270.187 81.2256C269.44 80.4389 268.093 80.3322 267.2 80.9989C266.307 81.6655 266.187 82.8389 266.947 83.6255L272.72 89.6789C273.133 90.1189 273.733 90.3455 274.347 90.3455C274.813 90.3455 275.293 90.1989 275.693 89.9055Z" fill="#1d4e89"/>
<path d="M320.92 90.2389C321.813 89.5722 321.933 88.3989 321.173 87.6122L314.76 80.8789C314.013 80.0922 312.667 79.9855 311.773 80.6522C310.88 81.3189 310.76 82.4922 311.507 83.2789L317.92 90.0122C318.333 90.4522 318.947 90.6789 319.547 90.6789C320.04 90.6789 320.52 90.5455 320.92 90.2389Z" fill="#1d4e89"/>
<path d="M366.12 90.5588C367.013 89.8921 367.133 88.7188 366.373 87.9321L359.347 80.5588C358.6 79.7721 357.253 79.6655 356.36 80.3321C355.467 80.9988 355.347 82.1721 356.093 82.9588L363.12 90.3321C363.533 90.7721 364.133 90.9988 364.747 90.9988C365.253 90.9988 365.733 90.8521 366.12 90.5588Z" fill="#1d4e89"/>
<path d="M411.267 90.8121C412.16 90.1455 412.28 88.9722 411.533 88.1855L404.027 80.3188C403.267 79.5321 401.933 79.4255 401.04 80.0921C400.147 80.7588 400.027 81.9321 400.773 82.7188L408.28 90.5855C408.693 91.0255 409.293 91.2521 409.907 91.2521C410.387 91.2521 410.88 91.1055 411.267 90.8121Z" fill="#1d4e89"/>
<path d="M433.814 90.9188C434.707 90.2521 434.827 89.0788 434.08 88.2921L426.374 80.2121C425.627 79.4255 424.28 79.3188 423.387 79.9854C422.494 80.6521 422.374 81.8254 423.134 82.6121L430.84 90.6921C431.254 91.1321 431.867 91.3588 432.467 91.3588C432.947 91.3588 433.427 91.2121 433.814 90.9188Z" fill="#1d4e89"/>
<path d="M456.374 91.0256C457.267 90.3589 457.387 89.1856 456.627 88.3989L448.72 80.0923C447.974 79.3056 446.627 79.1989 445.734 79.8656C444.84 80.5322 444.72 81.7056 445.48 82.4922L453.387 90.7989C453.8 91.2389 454.414 91.4656 455.014 91.4656C455.494 91.4656 455.974 91.3189 456.374 91.0256Z" fill="#1d4e89"/>
<path d="M501.453 91.1989C502.346 90.5322 502.466 89.3589 501.706 88.5722L493.453 79.9189C492.706 79.1322 491.373 79.0256 490.466 79.6922C489.573 80.3589 489.453 81.5322 490.213 82.3189L498.466 90.9723C498.88 91.4123 499.48 91.6389 500.093 91.6389C500.573 91.6389 501.053 91.5056 501.453 91.1989Z" fill="#1d4e89"/>
<path d="M523.946 91.2656C524.84 90.5989 524.96 89.4255 524.2 88.6389L515.84 79.8789C515.093 79.0922 513.746 78.9855 512.853 79.6522C511.96 80.3189 511.84 81.4922 512.586 82.2789L520.946 91.0389C521.36 91.4789 521.96 91.7055 522.573 91.7055C523.08 91.6922 523.56 91.5589 523.946 91.2656Z" fill="#1d4e89"/>
<path d="M546.467 91.3321C547.36 90.6655 547.48 89.4921 546.72 88.7055L538.227 79.7988C537.48 79.0121 536.147 78.9054 535.24 79.5721C534.347 80.2388 534.227 81.4121 534.987 82.1988L543.48 91.1054C543.893 91.5454 544.493 91.7721 545.106 91.7721C545.6 91.7721 546.08 91.6255 546.467 91.3321Z" fill="#1d4e89"/>
<path d="M568.933 91.3455C569.827 90.6789 569.947 89.5055 569.2 88.7189L560.68 79.7722C559.92 78.9855 558.587 78.8788 557.693 79.5455C556.8 80.2122 556.68 81.3855 557.427 82.1722L565.947 91.1188C566.36 91.5588 566.973 91.7855 567.573 91.7855C568.067 91.7855 568.547 91.6389 568.933 91.3455Z" fill="#1d4e89"/>
<path d="M591.44 91.3987C592.333 90.732 592.453 89.5587 591.693 88.772L583.067 79.7187C582.307 78.932 580.973 78.8254 580.08 79.492C579.187 80.1587 579.067 81.332 579.813 82.1187L588.44 91.172C588.853 91.612 589.453 91.8387 590.067 91.8387C590.573 91.8387 591.053 91.692 591.44 91.3987Z" fill="#1d4e89"/>
<path d="M613.907 91.4254C614.8 90.7587 614.92 89.5854 614.16 88.7987L605.507 79.7187C604.76 78.932 603.414 78.8254 602.52 79.492C601.627 80.1587 601.507 81.332 602.267 82.1187L610.92 91.1987C611.333 91.6387 611.934 91.8654 612.547 91.8654C613.04 91.852 613.52 91.7187 613.907 91.4254Z" fill="#1d4e89"/>
<path d="M117.2 108.279C118.094 107.612 118.214 106.439 117.454 105.652L114.333 102.372C113.587 101.585 112.24 101.479 111.347 102.145C110.454 102.812 110.334 103.985 111.094 104.772L114.213 108.052C114.627 108.492 115.24 108.719 115.84 108.719C116.32 108.719 116.8 108.572 117.2 108.279Z" fill="#1d4e89"/>
<path d="M162.507 108.706C163.4 108.039 163.52 106.866 162.774 106.079L158.84 101.945C158.094 101.159 156.747 101.052 155.854 101.719C154.96 102.386 154.84 103.559 155.587 104.346L159.52 108.479C159.934 108.919 160.547 109.145 161.147 109.145C161.627 109.145 162.12 108.999 162.507 108.706Z" fill="#1d4e89"/>
<path d="M207.8 109.119C208.693 108.452 208.813 107.279 208.053 106.492L203.333 101.545C202.587 100.759 201.24 100.652 200.347 101.319C199.454 101.985 199.334 103.159 200.094 103.945L204.813 108.892C205.227 109.332 205.84 109.559 206.44 109.559C206.934 109.559 207.413 109.412 207.8 109.119Z" fill="#1d4e89"/>
<path d="M253.067 109.492C253.96 108.826 254.08 107.652 253.32 106.866L247.894 101.172C247.147 100.386 245.8 100.279 244.907 100.946C244.014 101.612 243.894 102.786 244.654 103.572L250.08 109.266C250.494 109.706 251.107 109.932 251.707 109.932C252.187 109.932 252.68 109.786 253.067 109.492Z" fill="#1d4e89"/>
<path d="M275.693 109.666C276.587 108.999 276.706 107.826 275.96 107.039L270.187 100.986C269.44 100.199 268.093 100.092 267.2 100.759C266.307 101.426 266.187 102.599 266.947 103.386L272.72 109.439C273.133 109.879 273.733 110.106 274.347 110.106C274.813 110.106 275.293 109.959 275.693 109.666Z" fill="#1d4e89"/>
<path d="M298.293 109.826C299.187 109.159 299.307 107.986 298.56 107.199L292.48 100.826C291.733 100.039 290.387 99.9323 289.493 100.599C288.6 101.266 288.48 102.439 289.24 103.226L295.32 109.599C295.733 110.039 296.347 110.266 296.947 110.266C297.413 110.266 297.907 110.119 298.293 109.826Z" fill="#1d4e89"/>
<path d="M320.92 110.012C321.813 109.346 321.933 108.172 321.173 107.386L314.76 100.652C314.013 99.8656 312.667 99.759 311.773 100.426C310.88 101.092 310.76 102.266 311.507 103.052L317.92 109.786C318.333 110.226 318.947 110.452 319.547 110.452C320.04 110.439 320.52 110.306 320.92 110.012Z" fill="#1d4e89"/>
<path d="M343.507 110.146C344.4 109.479 344.52 108.306 343.773 107.519L337.08 100.506C336.334 99.7189 334.987 99.6122 334.093 100.279C333.2 100.946 333.08 102.119 333.84 102.906L340.533 109.919C340.947 110.359 341.56 110.586 342.16 110.586C342.627 110.586 343.107 110.439 343.507 110.146Z" fill="#1d4e89"/>
<path d="M366.12 110.332C367.013 109.666 367.133 108.492 366.373 107.706L359.347 100.332C358.6 99.5456 357.253 99.4389 356.36 100.106C355.467 100.772 355.347 101.946 356.093 102.732L363.12 110.106C363.533 110.546 364.133 110.772 364.747 110.772C365.253 110.772 365.733 110.626 366.12 110.332Z" fill="#1d4e89"/>
<path d="M388.693 110.452C389.587 109.785 389.707 108.612 388.947 107.825L381.68 100.199C380.933 99.412 379.587 99.3054 378.693 99.972C377.8 100.639 377.68 101.812 378.427 102.599L385.693 110.212C386.107 110.652 386.707 110.879 387.32 110.879C387.813 110.892 388.307 110.745 388.693 110.452Z" fill="#1d4e89"/>
<path d="M411.267 110.572C412.16 109.905 412.28 108.732 411.533 107.945L404.027 100.079C403.267 99.2921 401.933 99.1855 401.04 99.8522C400.147 100.519 400.027 101.692 400.773 102.479L408.28 110.345C408.693 110.785 409.293 111.012 409.907 111.012C410.387 111.012 410.88 110.865 411.267 110.572Z" fill="#1d4e89"/>
<path d="M433.814 110.679C434.707 110.012 434.827 108.839 434.08 108.052L426.374 99.9721C425.627 99.1855 424.28 99.0788 423.387 99.7454C422.494 100.412 422.374 101.585 423.134 102.372L430.84 110.452C431.254 110.892 431.867 111.119 432.467 111.119C432.947 111.119 433.427 110.972 433.814 110.679Z" fill="#1d4e89"/>
<path d="M456.374 110.785C457.267 110.119 457.387 108.945 456.627 108.159L448.72 99.8654C447.974 99.0788 446.627 98.9721 445.734 99.6388C444.84 100.305 444.72 101.479 445.48 102.265L453.387 110.559C453.8 110.999 454.414 111.225 455.014 111.225C455.494 111.225 455.974 111.079 456.374 110.785Z" fill="#1d4e89"/>
<path d="M478.907 110.879C479.8 110.212 479.92 109.039 479.173 108.252L471.093 99.7722C470.347 98.9855 469 98.8788 468.107 99.5455C467.213 100.212 467.093 101.386 467.853 102.172L475.933 110.652C476.347 111.092 476.947 111.319 477.56 111.319C478.04 111.319 478.52 111.172 478.907 110.879Z" fill="#1d4e89"/>
<path d="M501.453 110.972C502.346 110.305 502.466 109.132 501.706 108.345L493.453 99.6921C492.706 98.9054 491.373 98.7988 490.466 99.4654C489.573 100.132 489.453 101.305 490.213 102.092L498.466 110.745C498.88 111.185 499.48 111.412 500.093 111.412C500.573 111.399 501.053 111.265 501.453 110.972Z" fill="#1d4e89"/>
<path d="M523.946 111.026C524.84 110.359 524.96 109.186 524.2 108.399L515.84 99.6389C515.093 98.8522 513.746 98.7455 512.853 99.4122C511.96 100.079 511.84 101.252 512.586 102.039L520.946 110.799C521.36 111.239 521.96 111.466 522.573 111.466C523.08 111.452 523.56 111.319 523.946 111.026Z" fill="#1d4e89"/>
<path d="M546.467 111.092C547.36 110.425 547.48 109.252 546.72 108.465L538.227 99.5588C537.48 98.7721 536.147 98.6655 535.24 99.3321C534.347 99.9988 534.227 101.172 534.987 101.959L543.48 110.865C543.893 111.305 544.493 111.532 545.106 111.532C545.6 111.532 546.08 111.385 546.467 111.092Z" fill="#1d4e89"/>
<path d="M568.933 111.105C569.827 110.439 569.947 109.265 569.2 108.479L560.68 99.5322C559.92 98.7455 558.587 98.6389 557.693 99.3055C556.8 99.9722 556.68 101.146 557.427 101.932L565.947 110.879C566.36 111.319 566.973 111.546 567.573 111.546C568.067 111.546 568.547 111.399 568.933 111.105Z" fill="#1d4e89"/>
<path d="M591.44 111.159C592.333 110.492 592.453 109.319 591.693 108.532L583.067 99.4789C582.307 98.6923 580.973 98.5856 580.08 99.2523C579.187 99.919 579.067 101.092 579.813 101.879L588.44 110.932C588.853 111.372 589.453 111.599 590.067 111.599C590.573 111.599 591.053 111.452 591.44 111.159Z" fill="#1d4e89"/>
<path d="M613.907 111.186C614.8 110.519 614.92 109.346 614.16 108.559L605.507 99.4789C604.76 98.6923 603.414 98.5856 602.52 99.2523C601.627 99.919 601.507 101.092 602.267 101.879L610.92 110.959C611.333 111.399 611.934 111.626 612.547 111.626C613.04 111.612 613.52 111.479 613.907 111.186Z" fill="#1d4e89"/>
<path d="M49.2134 127.385C50.1067 126.719 50.2267 125.545 49.4667 124.759L47.6001 122.799C46.8534 122.012 45.5068 121.905 44.6134 122.572C43.7201 123.239 43.6001 124.412 44.3601 125.199L46.2267 127.159C46.6401 127.599 47.2401 127.825 47.8534 127.825C48.3334 127.812 48.8134 127.679 49.2134 127.385Z" fill="#1d4e89"/>
<path d="M94.5467 127.826C95.44 127.159 95.56 125.986 94.8 125.199L92.0801 122.346C91.3334 121.559 89.9868 121.452 89.0934 122.119C88.2001 122.786 88.0801 123.959 88.8401 124.746L91.5601 127.599C91.9734 128.039 92.5734 128.266 93.1868 128.266C93.6668 128.266 94.1467 128.119 94.5467 127.826Z" fill="#1d4e89"/>
<path d="M139.853 128.252C140.747 127.586 140.867 126.412 140.12 125.626L136.587 121.919C135.84 121.132 134.493 121.026 133.6 121.692C132.707 122.359 132.587 123.532 133.333 124.319L136.867 128.026C137.28 128.466 137.893 128.692 138.493 128.692C138.973 128.692 139.453 128.546 139.853 128.252Z" fill="#1d4e89"/>
<path d="M185.173 128.679C186.067 128.012 186.187 126.839 185.427 126.052L181.08 121.492C180.333 120.705 178.987 120.599 178.093 121.265C177.2 121.932 177.08 123.105 177.827 123.892L182.173 128.452C182.587 128.892 183.187 129.119 183.8 129.119C184.293 129.119 184.773 128.972 185.173 128.679Z" fill="#1d4e89"/>
<path d="M230.44 129.079C231.333 128.412 231.453 127.239 230.693 126.452L225.6 121.105C224.84 120.319 223.507 120.212 222.613 120.879C221.72 121.545 221.6 122.719 222.347 123.505L227.44 128.852C227.853 129.292 228.453 129.519 229.067 129.519C229.56 129.505 230.053 129.372 230.44 129.079Z" fill="#1d4e89"/>
<path d="M275.693 129.426C276.587 128.759 276.706 127.586 275.96 126.799L270.187 120.746C269.44 119.959 268.093 119.852 267.2 120.519C266.307 121.186 266.187 122.359 266.947 123.146L272.72 129.199C273.133 129.639 273.733 129.866 274.347 129.866C274.813 129.866 275.293 129.732 275.693 129.426Z" fill="#1d4e89"/>
<path d="M320.92 129.772C321.813 129.105 321.933 127.932 321.173 127.145L314.76 120.412C314.013 119.625 312.667 119.519 311.773 120.185C310.88 120.852 310.76 122.025 311.507 122.812L317.92 129.545C318.333 129.985 318.947 130.212 319.547 130.212C320.04 130.199 320.52 130.065 320.92 129.772Z" fill="#1d4e89"/>
<path d="M366.12 130.092C367.013 129.426 367.133 128.252 366.373 127.466L359.347 120.092C358.6 119.306 357.253 119.199 356.36 119.866C355.467 120.532 355.347 121.706 356.093 122.492L363.12 129.866C363.533 130.306 364.133 130.532 364.747 130.532C365.253 130.532 365.733 130.386 366.12 130.092Z" fill="#1d4e89"/>
<path d="M411.267 130.332C412.16 129.665 412.28 128.492 411.533 127.705L404.027 119.839C403.267 119.052 401.933 118.945 401.04 119.612C400.147 120.279 400.027 121.452 400.773 122.239L408.28 130.105C408.693 130.545 409.293 130.772 409.907 130.772C410.387 130.772 410.88 130.639 411.267 130.332Z" fill="#1d4e89"/>
<path d="M456.374 130.546C457.267 129.879 457.387 128.706 456.627 127.919L448.72 119.612C447.974 118.826 446.627 118.719 445.734 119.386C444.84 120.052 444.72 121.226 445.48 122.012L453.387 130.319C453.8 130.759 454.414 130.986 455.014 130.986C455.494 130.986 455.974 130.839 456.374 130.546Z" fill="#1d4e89"/>
<path d="M478.907 130.639C479.8 129.972 479.92 128.799 479.173 128.012L471.093 119.532C470.347 118.746 469 118.639 468.107 119.306C467.213 119.972 467.093 121.146 467.853 121.932L475.933 130.412C476.347 130.852 476.947 131.079 477.56 131.079C478.04 131.079 478.52 130.932 478.907 130.639Z" fill="#1d4e89"/>
<path d="M501.453 130.732C502.346 130.065 502.466 128.892 501.706 128.105L493.453 119.452C492.706 118.665 491.373 118.559 490.466 119.225C489.573 119.892 489.453 121.065 490.213 121.852L498.466 130.505C498.88 130.945 499.48 131.172 500.093 131.172C500.573 131.172 501.053 131.025 501.453 130.732Z" fill="#1d4e89"/>
<path d="M523.946 130.786C524.84 130.119 524.96 128.946 524.2 128.159L515.84 119.399C515.093 118.612 513.746 118.506 512.853 119.172C511.96 119.839 511.84 121.012 512.586 121.799L520.946 130.559C521.36 130.999 521.96 131.226 522.573 131.226C523.08 131.226 523.56 131.079 523.946 130.786Z" fill="#1d4e89"/>
<path d="M546.467 130.852C547.36 130.185 547.48 129.012 546.72 128.225L538.227 119.319C537.48 118.532 536.147 118.425 535.24 119.092C534.347 119.759 534.227 120.932 534.987 121.719L543.48 130.625C543.893 131.065 544.493 131.292 545.106 131.292C545.6 131.292 546.08 131.145 546.467 130.852Z" fill="#1d4e89"/>
<path d="M568.933 130.866C569.827 130.199 569.947 129.026 569.2 128.239L560.68 119.306C559.92 118.519 558.587 118.412 557.693 119.079C556.8 119.746 556.68 120.919 557.427 121.706L565.947 130.639C566.36 131.079 566.973 131.306 567.573 131.306C568.067 131.306 568.547 131.172 568.933 130.866Z" fill="#1d4e89"/>
<path d="M591.44 130.932C592.333 130.266 592.453 129.092 591.693 128.306L583.067 119.252C582.307 118.465 580.973 118.359 580.08 119.025C579.187 119.692 579.067 120.865 579.813 121.652L588.44 130.705C588.853 131.145 589.453 131.372 590.067 131.372C590.573 131.359 591.053 131.226 591.44 130.932Z" fill="#1d4e89"/>
<path d="M613.907 130.945C614.8 130.279 614.92 129.105 614.16 128.319L605.507 119.239C604.76 118.452 603.414 118.345 602.52 119.012C601.627 119.679 601.507 120.852 602.267 121.639L610.92 130.719C611.333 131.159 611.934 131.385 612.547 131.385C613.04 131.385 613.52 131.239 613.907 130.945Z" fill="#1d4e89"/>
<path d="M162.507 148.226C163.4 147.559 163.52 146.386 162.774 145.599L158.84 141.466C158.094 140.679 156.747 140.572 155.854 141.239C154.96 141.906 154.84 143.079 155.587 143.866L159.52 147.999C159.934 148.439 160.547 148.666 161.147 148.666C161.627 148.666 162.12 148.519 162.507 148.226Z" fill="#1d4e89"/>
<path d="M207.8 148.639C208.693 147.972 208.813 146.799 208.053 146.012L203.333 141.065C202.587 140.279 201.24 140.172 200.347 140.839C199.454 141.505 199.334 142.679 200.094 143.465L204.813 148.412C205.227 148.852 205.84 149.079 206.44 149.079C206.934 149.079 207.413 148.932 207.8 148.639Z" fill="#1d4e89"/>
<path d="M230.44 148.839C231.333 148.172 231.453 146.999 230.693 146.212L225.6 140.865C224.84 140.079 223.507 139.972 222.613 140.639C221.72 141.305 221.6 142.479 222.347 143.265L227.44 148.612C227.853 149.052 228.453 149.279 229.067 149.279C229.56 149.265 230.053 149.132 230.44 148.839Z" fill="#1d4e89"/>
<path d="M253.067 149.012C253.96 148.345 254.08 147.172 253.32 146.385L247.894 140.692C247.147 139.905 245.8 139.799 244.907 140.465C244.014 141.132 243.894 142.305 244.654 143.092L250.08 148.785C250.494 149.225 251.107 149.452 251.707 149.452C252.187 149.452 252.68 149.305 253.067 149.012Z" fill="#1d4e89"/>
<path d="M298.293 149.346C299.187 148.679 299.307 147.506 298.56 146.719L292.48 140.346C291.733 139.559 290.387 139.452 289.493 140.119C288.6 140.786 288.48 141.959 289.24 142.746L295.32 149.119C295.733 149.559 296.347 149.786 296.947 149.786C297.413 149.786 297.907 149.639 298.293 149.346Z" fill="#1d4e89"/>
<path d="M320.92 149.532C321.813 148.866 321.933 147.692 321.173 146.906L314.76 140.172C314.013 139.386 312.667 139.279 311.773 139.946C310.88 140.612 310.76 141.786 311.507 142.572L317.92 149.306C318.333 149.746 318.947 149.972 319.547 149.972C320.04 149.972 320.52 149.826 320.92 149.532Z" fill="#1d4e89"/>
<path d="M343.507 149.679C344.4 149.012 344.52 147.839 343.773 147.052L337.08 140.039C336.333 139.252 334.987 139.145 334.093 139.812C333.2 140.479 333.08 141.652 333.827 142.439L340.52 149.452C340.933 149.892 341.533 150.119 342.147 150.119C342.627 150.105 343.107 149.959 343.507 149.679Z" fill="#1d4e89"/>
<path d="M366.12 149.852C367.013 149.186 367.133 148.012 366.373 147.226L359.347 139.852C358.6 139.066 357.253 138.959 356.36 139.626C355.467 140.292 355.347 141.466 356.093 142.252L363.12 149.626C363.533 150.066 364.133 150.292 364.747 150.292C365.253 150.292 365.733 150.146 366.12 149.852Z" fill="#1d4e89"/>
<path d="M388.693 149.972C389.587 149.305 389.707 148.132 388.947 147.345L381.68 139.719C380.933 138.932 379.587 138.825 378.693 139.492C377.8 140.159 377.68 141.332 378.427 142.119L385.693 149.745C386.107 150.185 386.707 150.412 387.32 150.412C387.813 150.412 388.307 150.265 388.693 149.972Z" fill="#1d4e89"/>
<path d="M411.267 150.106C412.16 149.439 412.28 148.266 411.533 147.479L404.027 139.612C403.267 138.826 401.933 138.719 401.04 139.386C400.147 140.052 400.027 141.226 400.773 142.012L408.28 149.879C408.693 150.319 409.293 150.546 409.907 150.546C410.387 150.532 410.88 150.399 411.267 150.106Z" fill="#1d4e89"/>
<path d="M433.814 150.199C434.707 149.532 434.827 148.359 434.08 147.572L426.374 139.492C425.627 138.705 424.28 138.599 423.387 139.265C422.494 139.932 422.374 141.105 423.134 141.892L430.84 149.972C431.254 150.412 431.867 150.639 432.467 150.639C432.947 150.639 433.427 150.505 433.814 150.199Z" fill="#1d4e89"/>
<path d="M456.374 150.319C457.267 149.652 457.387 148.479 456.627 147.692L448.72 139.385C447.974 138.599 446.627 138.492 445.734 139.159C444.84 139.825 444.72 140.999 445.48 141.785L453.387 150.092C453.8 150.532 454.414 150.759 455.014 150.759C455.494 150.759 455.974 150.612 456.374 150.319Z" fill="#1d4e89"/>
<path d="M478.907 150.399C479.8 149.732 479.92 148.559 479.173 147.772L471.093 139.292C470.347 138.506 469 138.399 468.107 139.066C467.213 139.732 467.093 140.906 467.853 141.692L475.933 150.172C476.347 150.612 476.947 150.839 477.56 150.839C478.04 150.839 478.52 150.692 478.907 150.399Z" fill="#1d4e89"/>
<path d="M501.453 150.492C502.346 149.825 502.466 148.652 501.706 147.865L493.453 139.212C492.706 138.425 491.373 138.319 490.466 138.985C489.573 139.652 489.453 140.825 490.213 141.612L498.466 150.265C498.88 150.705 499.48 150.932 500.093 150.932C500.573 150.932 501.053 150.785 501.453 150.492Z" fill="#1d4e89"/>
<path d="M523.946 150.546C524.84 149.879 524.96 148.706 524.2 147.919L515.84 139.159C515.093 138.372 513.746 138.266 512.853 138.932C511.96 139.599 511.84 140.772 512.586 141.559L520.946 150.319C521.36 150.759 521.96 150.986 522.573 150.986C523.08 150.986 523.56 150.839 523.946 150.546Z" fill="#1d4e89"/>
<path d="M546.467 150.612C547.36 149.945 547.48 148.772 546.72 147.985L538.227 139.079C537.48 138.292 536.147 138.185 535.24 138.852C534.347 139.519 534.227 140.692 534.987 141.479L543.48 150.385C543.893 150.825 544.493 151.052 545.106 151.052C545.6 151.052 546.08 150.905 546.467 150.612Z" fill="#1d4e89"/>
<path d="M568.933 150.639C569.827 149.972 569.947 148.799 569.2 148.012L560.68 139.079C559.92 138.292 558.587 138.185 557.693 138.852C556.8 139.519 556.68 140.692 557.427 141.479L565.947 150.412C566.36 150.852 566.973 151.079 567.573 151.079C568.067 151.065 568.547 150.932 568.933 150.639Z" fill="#1d4e89"/>
<path d="M591.44 150.692C592.333 150.025 592.453 148.852 591.693 148.065L583.067 139.012C582.307 138.226 580.973 138.119 580.08 138.785C579.187 139.452 579.067 140.625 579.813 141.412L588.44 150.466C588.853 150.906 589.453 151.132 590.067 151.132C590.573 151.132 591.053 150.985 591.44 150.692Z" fill="#1d4e89"/>
<path d="M613.907 150.706C614.8 150.039 614.92 148.866 614.16 148.079L605.507 138.999C604.76 138.212 603.414 138.106 602.52 138.772C601.627 139.439 601.507 140.612 602.267 141.399L610.92 150.479C611.333 150.919 611.934 151.146 612.547 151.146C613.04 151.146 613.52 150.999 613.907 150.706Z" fill="#1d4e89"/>
<path d="M49.2134 166.905C50.1067 166.239 50.2267 165.065 49.4667 164.279L47.6001 162.319C46.8534 161.532 45.5068 161.425 44.6134 162.092C43.7201 162.759 43.6001 163.932 44.3601 164.719L46.2267 166.679C46.6401 167.119 47.2401 167.345 47.8534 167.345C48.3334 167.345 48.8134 167.199 49.2134 166.905Z" fill="#1d4e89"/>
<path d="M94.5467 167.345C95.44 166.679 95.56 165.505 94.8 164.719L92.0801 161.865C91.3334 161.079 89.9868 160.972 89.0934 161.639C88.2001 162.305 88.0801 163.479 88.8401 164.265L91.5601 167.119C91.9734 167.559 92.5734 167.785 93.1868 167.785C93.6668 167.785 94.1467 167.639 94.5467 167.345Z" fill="#1d4e89"/>
<path d="M139.853 167.772C140.747 167.106 140.867 165.932 140.12 165.146L136.587 161.439C135.84 160.652 134.493 160.546 133.6 161.212C132.707 161.879 132.587 163.052 133.333 163.839L136.867 167.546C137.28 167.986 137.893 168.212 138.493 168.212C138.973 168.212 139.453 168.079 139.853 167.772Z" fill="#1d4e89"/>
<path d="M185.173 168.199C186.067 167.532 186.187 166.359 185.427 165.572L181.08 161.012C180.333 160.226 178.987 160.119 178.093 160.785C177.2 161.452 177.08 162.625 177.827 163.412L182.173 167.972C182.587 168.412 183.187 168.639 183.8 168.639C184.293 168.639 184.773 168.505 185.173 168.199Z" fill="#1d4e89"/>
<path d="M230.44 168.599C231.333 167.932 231.453 166.759 230.693 165.972L225.6 160.625C224.84 159.839 223.507 159.732 222.613 160.399C221.72 161.065 221.6 162.239 222.347 163.025L227.44 168.372C227.853 168.812 228.453 169.039 229.067 169.039C229.56 169.039 230.053 168.892 230.44 168.599Z" fill="#1d4e89"/>
<path d="M275.693 168.959C276.587 168.292 276.706 167.119 275.96 166.332L270.187 160.279C269.44 159.492 268.093 159.385 267.2 160.052C266.307 160.719 266.187 161.892 266.947 162.679L272.72 168.732C273.133 169.172 273.733 169.399 274.347 169.399C274.813 169.385 275.293 169.252 275.693 168.959Z" fill="#1d4e89"/>
<path d="M320.92 169.292C321.813 168.625 321.933 167.452 321.173 166.665L314.76 159.932C314.013 159.145 312.667 159.039 311.773 159.705C310.88 160.372 310.76 161.545 311.507 162.332L317.92 169.065C318.333 169.505 318.947 169.732 319.547 169.732C320.04 169.732 320.52 169.585 320.92 169.292Z" fill="#1d4e89"/>
<path d="M343.507 169.439C344.4 168.772 344.52 167.599 343.773 166.812L337.08 159.799C336.334 159.012 334.987 158.905 334.093 159.572C333.2 160.239 333.08 161.412 333.84 162.199L340.533 169.212C340.947 169.652 341.56 169.879 342.16 169.879C342.627 169.865 343.107 169.732 343.507 169.439Z" fill="#1d4e89"/>
<path d="M366.12 169.612C367.013 168.946 367.133 167.772 366.373 166.986L359.347 159.612C358.6 158.826 357.253 158.719 356.36 159.386C355.467 160.052 355.347 161.226 356.093 162.012L363.12 169.386C363.533 169.826 364.133 170.052 364.747 170.052C365.253 170.052 365.733 169.906 366.12 169.612Z" fill="#1d4e89"/>
<path d="M411.267 169.865C412.16 169.199 412.28 168.025 411.533 167.239L404.027 159.372C403.267 158.585 401.933 158.479 401.04 159.145C400.147 159.812 400.027 160.985 400.773 161.772L408.28 169.639C408.693 170.079 409.293 170.305 409.907 170.305C410.387 170.292 410.88 170.159 411.267 169.865Z" fill="#1d4e89"/>
<path d="M433.814 169.972C434.707 169.306 434.827 168.132 434.08 167.346L426.374 159.266C425.627 158.479 424.28 158.372 423.387 159.039C422.494 159.706 422.374 160.879 423.134 161.666L430.84 169.746C431.254 170.186 431.867 170.412 432.467 170.412C432.947 170.399 433.427 170.266 433.814 169.972Z" fill="#1d4e89"/>
<path d="M456.374 170.079C457.267 169.412 457.387 168.239 456.627 167.452L448.72 159.159C447.974 158.372 446.627 158.266 445.734 158.932C444.84 159.599 444.72 160.772 445.48 161.559L453.387 169.866C453.8 170.306 454.414 170.532 455.014 170.532C455.494 170.519 455.974 170.372 456.374 170.079Z" fill="#1d4e89"/>
<path d="M501.453 170.252C502.346 169.585 502.466 168.412 501.706 167.625L493.453 158.972C492.706 158.185 491.373 158.079 490.466 158.745C489.573 159.412 489.453 160.585 490.213 161.372L498.466 170.025C498.88 170.465 499.48 170.692 500.093 170.692C500.573 170.692 501.053 170.545 501.453 170.252Z" fill="#1d4e89"/>
<path d="M523.946 170.306C524.84 169.639 524.96 168.466 524.2 167.679L515.84 158.919C515.093 158.132 513.746 158.026 512.853 158.692C511.96 159.359 511.84 160.532 512.586 161.319L520.946 170.079C521.36 170.519 521.96 170.746 522.573 170.746C523.08 170.746 523.56 170.599 523.946 170.306Z" fill="#1d4e89"/>
<path d="M546.467 170.372C547.36 169.705 547.48 168.532 546.72 167.745L538.227 158.839C537.48 158.052 536.147 157.945 535.24 158.612C534.347 159.279 534.227 160.452 534.987 161.239L543.48 170.145C543.893 170.585 544.493 170.812 545.106 170.812C545.6 170.812 546.08 170.679 546.467 170.372Z" fill="#1d4e89"/>
<path d="M568.933 170.399C569.827 169.732 569.947 168.559 569.2 167.772L560.68 158.826C559.92 158.039 558.587 157.932 557.693 158.599C556.8 159.266 556.68 160.439 557.427 161.226L565.947 170.172C566.36 170.612 566.973 170.839 567.573 170.839C568.067 170.839 568.547 170.692 568.933 170.399Z" fill="#1d4e89"/>
<path d="M591.44 170.452C592.333 169.786 592.453 168.612 591.693 167.826L583.067 158.772C582.307 157.985 580.973 157.879 580.08 158.546C579.187 159.212 579.067 160.386 579.813 161.172L588.44 170.226C588.853 170.666 589.453 170.892 590.067 170.892C590.573 170.892 591.053 170.746 591.44 170.452Z" fill="#1d4e89"/>
<path d="M613.907 170.465C614.8 169.799 614.92 168.625 614.16 167.839L605.507 158.759C604.76 157.972 603.414 157.865 602.52 158.532C601.627 159.199 601.507 160.372 602.267 161.159L610.92 170.239C611.333 170.679 611.934 170.905 612.547 170.905C613.04 170.905 613.52 170.759 613.907 170.465Z" fill="#1d4e89"/>
<path d="M162.507 187.759C163.4 187.092 163.52 185.919 162.774 185.132L158.84 180.999C158.094 180.212 156.747 180.106 155.854 180.772C154.96 181.439 154.84 182.612 155.587 183.399L159.52 187.532C159.934 187.972 160.547 188.199 161.147 188.199C161.627 188.186 162.12 188.052 162.507 187.759Z" fill="#1d4e89"/>
<path d="M207.8 188.159C208.693 187.492 208.813 186.319 208.053 185.532L203.333 180.585C202.587 179.799 201.24 179.692 200.347 180.359C199.454 181.025 199.334 182.199 200.094 182.985L204.813 187.932C205.227 188.372 205.84 188.599 206.44 188.599C206.934 188.599 207.413 188.452 207.8 188.159Z" fill="#1d4e89"/>
<path d="M253.067 188.532C253.96 187.865 254.08 186.692 253.32 185.905L247.894 180.212C247.147 179.425 245.8 179.319 244.907 179.985C244.014 180.652 243.894 181.825 244.654 182.612L250.08 188.305C250.494 188.745 251.107 188.972 251.707 188.972C252.187 188.972 252.68 188.825 253.067 188.532Z" fill="#1d4e89"/>
<path d="M275.693 188.719C276.587 188.052 276.706 186.879 275.96 186.092L270.187 180.039C269.44 179.252 268.093 179.145 267.2 179.812C266.307 180.479 266.187 181.652 266.947 182.439L272.72 188.492C273.133 188.932 273.733 189.159 274.347 189.159C274.813 189.145 275.293 189.012 275.693 188.719Z" fill="#1d4e89"/>
<path d="M298.293 188.879C299.187 188.212 299.307 187.039 298.56 186.252L292.48 179.879C291.733 179.092 290.387 178.986 289.493 179.652C288.6 180.319 288.48 181.492 289.24 182.279L295.32 188.652C295.733 189.092 296.347 189.319 296.947 189.319C297.413 189.306 297.907 189.172 298.293 188.879Z" fill="#1d4e89"/>
<path d="M320.92 189.052C321.813 188.385 321.933 187.212 321.173 186.425L314.76 179.692C314.013 178.905 312.667 178.799 311.773 179.465C310.88 180.132 310.76 181.305 311.507 182.092L317.92 188.825C318.333 189.265 318.947 189.492 319.547 189.492C320.04 189.492 320.52 189.345 320.92 189.052Z" fill="#1d4e89"/>
<path d="M343.507 189.199C344.4 188.532 344.52 187.359 343.773 186.572L337.08 179.559C336.334 178.772 334.987 178.665 334.093 179.332C333.2 179.999 333.08 181.172 333.84 181.959L340.533 188.972C340.947 189.412 341.56 189.639 342.16 189.639C342.627 189.639 343.107 189.492 343.507 189.199Z" fill="#1d4e89"/>
<path d="M366.12 189.372C367.013 188.705 367.133 187.532 366.373 186.745L359.347 179.372C358.6 178.585 357.253 178.479 356.36 179.145C355.467 179.812 355.347 180.985 356.093 181.772L363.12 189.145C363.533 189.585 364.133 189.812 364.747 189.812C365.253 189.812 365.733 189.665 366.12 189.372Z" fill="#1d4e89"/>
<path d="M388.693 189.506C389.587 188.839 389.707 187.665 388.947 186.879L381.68 179.252C380.933 178.465 379.587 178.359 378.693 179.025C377.8 179.692 377.68 180.865 378.427 181.652L385.693 189.279C386.107 189.719 386.707 189.945 387.32 189.945C387.813 189.932 388.307 189.799 388.693 189.506Z" fill="#1d4e89"/>
<path d="M411.267 189.626C412.16 188.959 412.28 187.786 411.533 186.999L404.027 179.132C403.267 178.346 401.933 178.239 401.04 178.906C400.147 179.572 400.027 180.746 400.773 181.532L408.28 189.399C408.693 189.839 409.293 190.066 409.907 190.066C410.387 190.066 410.88 189.919 411.267 189.626Z" fill="#1d4e89"/>
<path d="M433.814 189.732C434.707 189.065 434.827 187.892 434.08 187.105L426.374 179.025C425.627 178.239 424.28 178.132 423.387 178.799C422.494 179.465 422.374 180.639 423.134 181.425L430.84 189.505C431.254 189.945 431.867 190.172 432.467 190.172C432.947 190.172 433.427 190.025 433.814 189.732Z" fill="#1d4e89"/>
<path d="M456.374 189.839C457.267 189.172 457.387 187.999 456.627 187.212L448.72 178.905C447.974 178.119 446.627 178.012 445.734 178.679C444.84 179.345 444.72 180.519 445.48 181.305L453.387 189.612C453.8 190.052 454.414 190.279 455.014 190.279C455.494 190.279 455.974 190.132 456.374 189.839Z" fill="#1d4e89"/>
<path d="M478.907 189.932C479.8 189.266 479.92 188.092 479.173 187.306L471.093 178.826C470.347 178.039 469 177.932 468.107 178.599C467.213 179.266 467.093 180.439 467.853 181.226L475.933 189.706C476.347 190.146 476.947 190.372 477.56 190.372C478.04 190.359 478.52 190.226 478.907 189.932Z" fill="#1d4e89"/>
<path d="M501.453 190.012C502.346 189.345 502.466 188.172 501.706 187.385L493.453 178.732C492.706 177.945 491.373 177.839 490.466 178.505C489.573 179.172 489.453 180.345 490.213 181.132L498.466 189.785C498.88 190.225 499.48 190.452 500.093 190.452C500.573 190.452 501.053 190.305 501.453 190.012Z" fill="#1d4e89"/>
<path d="M523.946 190.066C524.84 189.399 524.96 188.226 524.2 187.439L515.84 178.679C515.093 177.892 513.746 177.786 512.853 178.452C511.96 179.119 511.84 180.292 512.586 181.079L520.946 189.839C521.36 190.279 521.96 190.506 522.573 190.506C523.08 190.506 523.56 190.359 523.946 190.066Z" fill="#1d4e89"/>
<path d="M546.467 190.146C547.36 189.479 547.48 188.306 546.72 187.519L538.227 178.612C537.48 177.826 536.147 177.719 535.24 178.386C534.347 179.052 534.227 180.226 534.987 181.012L543.48 189.919C543.893 190.359 544.493 190.586 545.106 190.586C545.6 190.572 546.08 190.439 546.467 190.146Z" fill="#1d4e89"/>
<path d="M568.933 190.159C569.827 189.492 569.947 188.319 569.2 187.532L560.68 178.585C559.92 177.799 558.587 177.692 557.693 178.359C556.8 179.025 556.68 180.199 557.427 180.985L565.947 189.932C566.36 190.372 566.973 190.599 567.573 190.599C568.067 190.599 568.547 190.452 568.933 190.159Z" fill="#1d4e89"/>
<path d="M591.44 190.212C592.333 189.546 592.453 188.372 591.693 187.586L583.067 178.532C582.307 177.746 580.973 177.639 580.08 178.306C579.187 178.972 579.067 180.146 579.813 180.932L588.44 189.985C588.853 190.425 589.453 190.652 590.067 190.652C590.573 190.652 591.053 190.506 591.44 190.212Z" fill="#1d4e89"/>
<path d="M613.907 190.226C614.8 189.559 614.92 188.386 614.16 187.599L605.507 178.519C604.76 177.732 603.414 177.626 602.52 178.292C601.627 178.959 601.507 180.132 602.267 180.919L610.92 189.999C611.333 190.439 611.934 190.666 612.547 190.666C613.04 190.666 613.52 190.519 613.907 190.226Z" fill="#1d4e89"/>
</svg>
